<svg width="56" height="13" viewBox="0 0 56 13" fill="none" xmlns="http://www.w3.org/2000/svg">
<path d="M30.4011 7.62283L29.4479 7.05863C28.3755 6.46473 27.8095 6.07871 27.8095 5.36605C27.8095 4.83157 28.2861 4.41582 28.9117 4.41582C30.1628 4.41582 30.7586 5.39574 30.9076 6.61322H31.1161L31.5927 3.97042C31.1756 3.79226 30.5203 3.67348 29.865 3.67348C27.5712 3.67348 26.4393 4.89095 26.4393 6.28658C26.4393 7.47434 27.4223 8.09793 28.1968 8.51364L29.5075 9.25599C30.3713 9.7014 30.7884 10.1468 30.7884 10.8001C30.7884 11.3049 30.4011 11.8988 29.5075 11.8988C28.2861 11.8988 27.3031 10.8001 26.9159 9.2263H26.7372L26.2307 9.90928C25.5754 10.6813 24.8307 11.3049 23.6391 11.3049C21.7923 11.3049 20.9284 9.93897 20.9284 8.09793H25.4562V6.88044C25.4562 5.1879 24.6222 3.70317 22.5965 3.70317C20.2134 3.70317 19.0517 5.84114 19.0517 8.24638C19.0517 9.31538 19.3198 10.2062 19.7666 10.9189C19.4687 11.2455 19.0517 11.6019 18.4857 11.6019C17.89 11.6019 17.5921 11.0376 17.5921 10.1765V0.28833C17.5325 0.318024 17.4729 0.347719 17.4133 0.377413C16.7282 0.704051 16.1026 0.941606 15.4175 1.11977C15.4473 1.17916 15.4771 1.23855 15.4771 1.29794C15.775 2.06999 15.8048 2.99051 15.8048 3.97042V9.8202C15.8048 10.2656 15.8643 10.6516 15.9537 10.9783C15.7154 11.3049 15.3877 11.6612 14.9409 11.6612C14.3749 11.6612 13.9281 11.2158 13.9281 10.325V6.91017C13.9281 5.42543 13.6302 3.67348 11.1577 3.67348C8.98319 3.67348 8.08952 5.03941 8.08952 6.37566L9.7279 6.99925C9.7279 6.99925 9.51937 4.26736 11.0088 4.26736C12.2004 4.26736 12.1706 5.60361 12.1706 6.76168V7.17739C12.1706 7.44465 11.545 7.80098 10.3534 8.24638C9.31083 8.6621 7.73206 9.19661 7.73206 10.711C7.73206 11.8097 8.53634 12.6115 9.7279 12.6115C10.6811 12.6115 11.6046 12.077 12.2004 11.2455C12.2301 11.6612 12.8855 12.6115 13.8983 12.6115C14.9409 12.6115 15.6558 11.9879 16.1026 11.394C16.4899 12.2254 17.175 12.6115 17.9793 12.6115C18.8432 12.6115 19.5283 11.8691 19.9752 11.2158C20.6603 12.077 21.6433 12.6115 22.7753 12.6115C24.1754 12.6115 25.1583 11.6909 25.7243 10.8001C26.0818 11.2752 27.2138 12.6115 29.0011 12.6115C30.4905 12.6115 31.9203 11.6315 31.9203 9.90928C31.9501 8.63241 31.0863 8.00886 30.4011 7.62283ZM12.2004 10.8298C11.8131 11.1268 11.3365 11.394 10.8301 11.394C9.96618 11.394 9.54915 10.7704 9.54915 10.028C9.54915 9.04816 10.0556 8.60272 11.6046 8.60272C12.1407 8.60272 12.2004 8.6621 12.2004 8.98874V10.8298ZM20.9284 7.38527C20.9284 5.36605 21.405 4.29705 22.3582 4.29705C23.1328 4.29705 23.6689 5.0691 23.6689 6.82106C23.6689 7.50403 23.5796 7.5931 23.0434 7.5931H20.9582L20.9284 7.38527Z" fill="black"/>
<path d="M35.0183 9.82166V0.289795C34.2736 0.646126 33.5885 0.913376 32.8438 1.12124C33.2012 1.89329 33.231 2.90289 33.231 3.94219V9.79196C33.231 10.7125 33.1714 11.4252 32.814 12.3754H35.6439C35.6737 12.3754 35.0183 11.5439 35.0183 9.82166Z" fill="black"/>
<path d="M39.7248 3.67603C37.6099 3.67603 36.1801 5.4577 36.1801 8.18954C36.1801 10.7433 37.4908 12.614 39.5761 12.614C41.6908 12.614 43.121 10.862 43.121 8.15985C43.121 5.60615 41.8102 3.67603 39.7248 3.67603ZM39.7843 11.931C38.6227 11.931 38.1163 9.85243 38.1163 7.62537C38.1163 5.51708 38.5631 4.29959 39.4865 4.29959C40.6783 4.29959 41.1546 6.46731 41.1546 8.69436C41.1546 10.862 40.6783 11.931 39.7843 11.931Z" fill="black"/>
<path d="M50.7765 4.29867H53.2192V3.82357H50.7765V1.44802C50.1808 1.83405 49.5553 2.13099 48.8997 2.36855C48.9596 2.99213 48.9596 3.37815 48.9894 3.82357H46.0402C45.8018 3.1109 45.6531 2.51702 45.6531 2.04191C45.6531 1.44802 45.8613 1.12139 46.338 1.12139C46.8148 1.12139 47.2915 1.71527 47.7083 3.19999H47.9169L48.4234 0.527502C48.4234 0.527502 48.0062 0.260254 47.4105 0.260254C45.2359 0.260254 44.3721 1.92313 44.3423 3.79387H43.3591V4.26898H44.3423V4.35805V9.58425C44.3423 10.5048 44.3126 11.3659 43.9251 12.3755H46.5169C46.1294 11.3956 46.0997 10.5048 46.0997 9.58425V4.38774V4.29867H48.9894V4.38774V10.2672C48.9894 11.8113 49.6148 12.6131 50.6575 12.6131C51.8786 12.6131 52.7425 11.6035 52.7425 10.6532C52.3256 10.9502 51.998 11.1581 51.6403 11.1581C50.7765 11.1581 50.7765 10.2078 50.7765 9.82181V4.38774V4.29867Z" fill="black"/>
<path d="M2.25095 3.37786C2.25095 2.60581 2.99566 1.98223 3.9489 1.98223C5.17024 1.98223 5.91495 2.54642 6.33198 5.48615H6.60009L6.98734 1.47743C4.21699 0.527211 0.821097 1.53682 0.761523 4.41716C0.761523 7.53506 5.7362 7.53506 5.7362 10.3857C5.7362 11.2171 4.99149 11.7813 4.15742 11.7813C1.95307 11.7813 1.44666 9.9403 1.3275 8.01016H1.05941L0.344482 11.6329C0.344482 11.6329 1.98285 12.5831 3.74038 12.5831C5.85538 12.5534 7.25544 11.0093 7.31501 9.3761C7.31501 6.25819 2.25095 5.60495 2.25095 3.37786Z" fill="black"/>
<path d="M53.6661 11.4852C53.6661 10.8913 54.1429 10.3865 54.7683 10.3865C55.4239 10.3865 55.9006 10.8913 55.9006 11.4852C55.9006 12.0791 55.4239 12.5838 54.7984 12.5838C54.1131 12.6135 53.6661 12.0791 53.6661 11.4852Z" fill="black"/>
</svg>
