<svg width="43" height="45" viewBox="0 0 43 45" fill="none" xmlns="http://www.w3.org/2000/svg">
<path d="M42.8925 2.1578L41.8925 9.45781C39.2925 9.25781 37.3925 9.79114 36.1925 11.0578C34.9925 12.3245 34.2592 14.0245 33.9925 16.1578C33.7258 18.2911 33.6592 20.5911 33.7925 23.0578H42.8925V44.1578H25.7925V19.0578C25.7925 12.9245 27.3258 8.32447 30.3925 5.2578C33.5258 2.19114 37.6925 1.1578 42.8925 2.1578ZM17.4925 2.1578L16.4925 9.45781C13.8925 9.25781 11.9925 9.79114 10.7925 11.0578C9.59249 12.3245 8.85915 14.0245 8.59249 16.1578C8.32582 18.2911 8.25915 20.5911 8.39249 23.0578H17.4925V44.1578H0.392488V19.0578C0.392488 12.9245 1.92582 8.32447 4.99249 5.2578C8.12582 2.19114 12.2925 1.1578 17.4925 2.1578Z" fill="#FF7474" fill-opacity="0.35"/>
</svg>
