<svg width="1920" height="821" viewBox="0 0 1920 821" fill="none" xmlns="http://www.w3.org/2000/svg">
<path d="M-70.4094 708.991C808.822 1227.85 1125.36 -299.371 1985.24 57.7019" stroke="url(#paint0_linear_23_218)" stroke-miterlimit="10"/>
<path d="M-68.0547 686.058C779.534 1220.58 1140.79 -276.436 1985.98 86.9417" stroke="url(#paint1_linear_23_218)" stroke-miterlimit="10"/>
<path d="M-65.7237 663.126C750.245 1213.31 1156.2 -253.501 1986.72 116.158" stroke="url(#paint2_linear_23_218)" stroke-miterlimit="10"/>
<path d="M-63.369 640.193C720.957 1206.04 1171.61 -230.566 1987.46 145.374" stroke="url(#paint3_linear_23_218)" stroke-miterlimit="10"/>
<path d="M-61.0143 617.284C691.668 1198.8 1187.05 -207.631 1988.2 174.59" stroke="url(#paint4_linear_23_218)" stroke-miterlimit="10"/>
<path d="M-58.6596 594.352C662.38 1191.53 1202.46 -184.696 1988.94 203.83" stroke="url(#paint5_linear_23_218)" stroke-miterlimit="10"/>
<path d="M-56.3286 571.419C633.092 1184.26 1217.89 -161.762 1989.67 233.045" stroke="url(#paint6_linear_23_218)" stroke-miterlimit="10"/>
<path d="M-53.9739 548.486C603.803 1177.01 1233.3 -138.827 1990.41 262.262" stroke="url(#paint7_linear_23_218)" stroke-miterlimit="10"/>
<path d="M-51.6192 525.577C574.538 1169.74 1248.73 -115.869 1991.18 291.478" stroke="url(#paint8_linear_23_218)" stroke-miterlimit="10"/>
<path d="M-49.2646 502.645C545.25 1162.47 1264.14 -92.9334 1991.91 320.718" stroke="url(#paint9_linear_23_218)" stroke-miterlimit="10"/>
<path d="M-46.9099 479.712C515.961 1155.2 1279.57 -69.9986 1992.65 349.934" stroke="url(#paint10_linear_23_218)" stroke-miterlimit="10"/>
<path d="M-44.5789 456.78C486.673 1147.96 1294.98 -47.0638 1993.39 379.15" stroke="url(#paint11_linear_23_218)" stroke-miterlimit="10"/>
<path d="M-42.2241 433.847C457.385 1140.69 1310.39 -24.1289 1994.13 408.366" stroke="url(#paint12_linear_23_218)" stroke-miterlimit="10"/>
<path d="M-39.8695 410.938C428.096 1133.42 1325.83 -1.19392 1994.87 437.606" stroke="url(#paint13_linear_23_218)" stroke-miterlimit="10"/>
<path d="M-37.5148 388.006C398.808 1126.15 1341.24 21.7407 1995.61 466.821" stroke="url(#paint14_linear_23_218)" stroke-miterlimit="10"/>
<path d="M-35.1838 365.073C369.519 1118.9 1356.67 44.6756 1996.35 496.038" stroke="url(#paint15_linear_23_218)" stroke-miterlimit="10"/>
<path d="M-32.8291 342.14C340.231 1111.63 1372.08 67.6341 1997.09 525.254" stroke="url(#paint16_linear_23_218)" stroke-miterlimit="10"/>
<path d="M-30.4745 319.232C310.966 1104.37 1387.51 90.5692 1997.83 554.494" stroke="url(#paint17_linear_23_218)" stroke-miterlimit="10"/>
<path d="M-28.1198 296.299C281.678 1097.12 1402.92 113.504 1998.56 583.71" stroke="url(#paint18_linear_23_218)" stroke-miterlimit="10"/>
<path d="M-25.7888 273.366C252.366 1089.85 1418.33 136.439 1999.28 612.926" stroke="url(#paint19_linear_23_218)" stroke-miterlimit="10"/>
<path d="M-23.4341 250.434C223.101 1082.58 1433.76 159.374 2000.04 642.142" stroke="url(#paint20_linear_23_218)" stroke-miterlimit="10"/>
<defs>
<linearGradient id="paint0_linear_23_218" x1="-91.3654" y1="550.73" x2="2014.55" y2="281.569" gradientUnits="userSpaceOnUse">
<stop stop-color="#9D9D9D"/>
<stop offset="0.51" stop-color="#FDFDFD"/>
<stop offset="1" stop-color="#A2A2A2"/>
</linearGradient>
<linearGradient id="paint1_linear_23_218" x1="-85.4697" y1="555.756" x2="2012.34" y2="287.631" gradientUnits="userSpaceOnUse">
<stop stop-color="#9D9D9D"/>
<stop offset="0.51" stop-color="#FAFAFA"/>
<stop offset="1" stop-color="#A6A6A6"/>
</linearGradient>
<linearGradient id="paint2_linear_23_218" x1="-79.559" y1="560.9" x2="2010.14" y2="293.811" gradientUnits="userSpaceOnUse">
<stop stop-color="#9D9D9D"/>
<stop offset="0.51" stop-color="#F8F8F8"/>
<stop offset="1" stop-color="#ABABAB"/>
</linearGradient>
<linearGradient id="paint3_linear_23_218" x1="-73.6333" y1="566.162" x2="2007.96" y2="300.109" gradientUnits="userSpaceOnUse">
<stop stop-color="#9D9D9D"/>
<stop offset="0.51" stop-color="#F6F6F6"/>
<stop offset="1" stop-color="#B0B0B0"/>
</linearGradient>
<linearGradient id="paint4_linear_23_218" x1="-67.6924" y1="571.541" x2="2005.8" y2="306.524" gradientUnits="userSpaceOnUse">
<stop stop-color="#9D9D9D"/>
<stop offset="0.51" stop-color="#F4F4F4"/>
<stop offset="1" stop-color="#B4B4B4"/>
</linearGradient>
<linearGradient id="paint5_linear_23_218" x1="-61.7366" y1="577.038" x2="2003.65" y2="313.057" gradientUnits="userSpaceOnUse">
<stop stop-color="#9D9D9D"/>
<stop offset="0.51" stop-color="#F1F1F1"/>
<stop offset="1" stop-color="#B9B9B9"/>
</linearGradient>
<linearGradient id="paint6_linear_23_218" x1="-55.7629" y1="582.675" x2="2001.51" y2="319.73" gradientUnits="userSpaceOnUse">
<stop stop-color="#9D9D9D"/>
<stop offset="0.51" stop-color="#EFEFEF"/>
<stop offset="1" stop-color="#BEBEBE"/>
</linearGradient>
<linearGradient id="paint7_linear_23_218" x1="-49.774" y1="588.431" x2="1999.4" y2="326.521" gradientUnits="userSpaceOnUse">
<stop stop-color="#9D9D9D"/>
<stop offset="0.51" stop-color="#EDEDED"/>
<stop offset="1" stop-color="#C2C2C2"/>
</linearGradient>
<linearGradient id="paint8_linear_23_218" x1="-43.7642" y1="594.35" x2="1997.32" y2="333.474" gradientUnits="userSpaceOnUse">
<stop stop-color="#9D9D9D"/>
<stop offset="0.51" stop-color="#EAEAEA"/>
<stop offset="1" stop-color="#C7C7C7"/>
</linearGradient>
<linearGradient id="paint9_linear_23_218" x1="-37.7394" y1="600.388" x2="1995.24" y2="340.547" gradientUnits="userSpaceOnUse">
<stop stop-color="#9D9D9D"/>
<stop offset="0.51" stop-color="#E8E8E8"/>
<stop offset="1" stop-color="#CCCCCC"/>
</linearGradient>
<linearGradient id="paint10_linear_23_218" x1="-31.6905" y1="606.613" x2="1993.19" y2="347.808" gradientUnits="userSpaceOnUse">
<stop stop-color="#9D9D9D"/>
<stop offset="0.51" stop-color="#E6E6E6"/>
<stop offset="1" stop-color="#D0D0D0"/>
</linearGradient>
<linearGradient id="paint11_linear_23_218" x1="-28.0297" y1="594.153" x2="1988.74" y2="336.385" gradientUnits="userSpaceOnUse">
<stop stop-color="#9D9D9D"/>
<stop offset="0.51" stop-color="#E4E4E4"/>
<stop offset="1" stop-color="#D5D5D5"/>
</linearGradient>
<linearGradient id="paint12_linear_23_218" x1="-24.7985" y1="578.333" x2="1983.87" y2="321.6" gradientUnits="userSpaceOnUse">
<stop stop-color="#9D9D9D"/>
<stop offset="0.51" stop-color="#E1E1E1"/>
<stop offset="1" stop-color="#DADADA"/>
</linearGradient>
<linearGradient id="paint13_linear_23_218" x1="-21.5162" y1="562.912" x2="1979.04" y2="307.216" gradientUnits="userSpaceOnUse">
<stop stop-color="#9D9D9D"/>
<stop offset="0.51" stop-color="#DFDFDF"/>
<stop offset="1" stop-color="#DEDEDE"/>
</linearGradient>
<linearGradient id="paint14_linear_23_218" x1="-17.2342" y1="555.126" x2="1975.2" y2="300.469" gradientUnits="userSpaceOnUse">
<stop stop-color="#9D9D9D"/>
<stop offset="0.51" stop-color="#DDDDDD"/>
<stop offset="1" stop-color="#E3E3E3"/>
</linearGradient>
<linearGradient id="paint15_linear_23_218" x1="-11.6449" y1="557.756" x2="1972.68" y2="304.134" gradientUnits="userSpaceOnUse">
<stop stop-color="#9D9D9D"/>
<stop offset="0.51" stop-color="#DADADA"/>
<stop offset="1" stop-color="#E8E8E8"/>
</linearGradient>
<linearGradient id="paint16_linear_23_218" x1="-6.05261" y1="560.408" x2="1970.19" y2="307.82" gradientUnits="userSpaceOnUse">
<stop stop-color="#9D9D9D"/>
<stop offset="0.51" stop-color="#D8D8D8"/>
<stop offset="1" stop-color="#ECECEC"/>
</linearGradient>
<linearGradient id="paint17_linear_23_218" x1="-0.436863" y1="563.058" x2="1967.68" y2="311.509" gradientUnits="userSpaceOnUse">
<stop stop-color="#9D9D9D"/>
<stop offset="0.51" stop-color="#D6D6D6"/>
<stop offset="1" stop-color="#F1F1F1"/>
</linearGradient>
<linearGradient id="paint18_linear_23_218" x1="5.15541" y1="565.711" x2="1965.16" y2="315.198" gradientUnits="userSpaceOnUse">
<stop stop-color="#9D9D9D"/>
<stop offset="0.51" stop-color="#D4D4D4"/>
<stop offset="1" stop-color="#F6F6F6"/>
</linearGradient>
<linearGradient id="paint19_linear_23_218" x1="10.7682" y1="568.337" x2="1962.65" y2="318.863" gradientUnits="userSpaceOnUse">
<stop stop-color="#9D9D9D"/>
<stop offset="0.51" stop-color="#D1D1D1"/>
<stop offset="1" stop-color="#FAFAFA"/>
</linearGradient>
<linearGradient id="paint20_linear_23_218" x1="16.384" y1="570.987" x2="1960.13" y2="322.552" gradientUnits="userSpaceOnUse">
<stop stop-color="#9D9D9D"/>
<stop offset="1" stop-color="white"/>
</linearGradient>
</defs>
</svg>
