<svg width="106" height="23" viewBox="0 0 106 23" fill="none" xmlns="http://www.w3.org/2000/svg">
<path d="M12.9045 10.9644C14.2263 10.1753 15.0189 8.71435 15.0189 6.80021C15.0189 3.9635 13.0663 1.01176 8.79346 1.01176H0.409637V22.0582H9.6531C13.8127 22.0582 16.008 19.5458 16.008 15.8027C16.0011 13.6838 14.9311 11.8133 12.9045 10.9644ZM3.99379 4.29249H8.74955C10.4226 4.29249 11.4209 5.38991 11.4209 6.85082C11.4209 8.5326 10.2655 9.40915 8.74955 9.40915H3.99379V4.29249ZM9.20479 18.7337H3.99379V12.7037H9.30878C11.2915 12.7037 12.4377 14.0059 12.4377 15.6945C12.4354 17.5719 11.0535 18.7406 9.20479 18.7406V18.7337ZM29.24 13.9253C31.6479 11.8202 32.8958 10.6078 32.8958 7.59624C32.8958 3.47576 29.857 0.56543 25.7899 0.56543C21.4154 0.56543 18.3766 3.32622 18.3766 7.52492H22.0162C21.9585 5.59466 23.5137 3.88528 25.7136 3.88528C27.8165 3.88298 29.2793 5.45432 29.2793 7.56403C29.2793 8.60162 28.794 9.69904 27.4006 10.9414L18.3558 18.9661V22.0352H32.9143V18.713H23.8233L29.24 13.9253ZM48.9217 10.9644C50.2435 10.1753 51.0361 8.71435 51.0361 6.80021C51.0361 3.9635 49.0834 1.01176 44.8106 1.01176H36.4245V22.0582H45.668C49.8275 22.0582 52.0252 19.5458 52.0252 15.8027C52.0159 13.6838 50.9437 11.8133 48.9217 10.9644ZM40.0086 4.29249H44.7621C46.4352 4.29249 47.4335 5.38991 47.4335 6.85082C47.4335 8.5326 46.278 9.40915 44.7621 9.40915H40.0063L40.0086 4.29249ZM45.2243 18.7406H40.0063V12.7037H45.3213C47.304 12.7037 48.4479 14.0059 48.4479 15.6945C48.4595 17.5719 47.073 18.7406 45.2243 18.7406ZM59.6602 7.10389C59.0006 7.53167 58.4563 8.11384 58.075 8.79948V6.26876H54.9484V22.0582H58.5025V14.0358C58.5025 12.2068 59.1472 10.732 60.6008 9.9429C61.6053 9.41025 62.7747 9.27469 63.8753 9.5633V6.27336C62.4495 6.0548 60.8365 6.30327 59.6602 7.10389ZM78.7965 8.77187C77.7543 6.68057 75.5082 5.83393 72.6889 5.83393C68.9615 5.83393 66.7731 7.60084 65.9874 10.2627L69.2226 11.2704C69.7518 9.65992 71.2631 9.06405 72.6889 9.06405C74.8473 9.06405 75.8017 9.9107 75.9241 11.7236C73.1511 12.1331 70.6993 12.469 69.0239 13.0097C66.5143 13.8724 65.4143 15.4346 65.4143 17.7306C65.4143 20.3327 67.2769 22.4953 70.7293 22.4953C73.2551 22.4953 74.9443 21.6924 76.2939 19.937V22.0582H79.3927V12.3678C79.3997 11.015 79.3558 9.88309 78.7965 8.77417V8.77187ZM75.5382 17.0726C75.1847 18.1701 73.849 19.6885 71.4411 19.6885C69.768 19.6885 68.8876 18.8418 68.8876 17.6869C68.8876 16.6631 69.5924 16.0765 70.8102 15.6163C71.9263 15.2367 73.366 15.0159 75.8941 14.6224C75.8756 15.3494 75.8317 16.3594 75.5382 17.0749V17.0726ZM83.5153 3.88298H87.051V0.662057H83.5153V3.88298ZM83.5153 22.0582H87.051V6.27336H83.5153V22.0582ZM99.7607 5.82013C97.4706 5.82013 95.7375 6.66907 94.5775 8.02876V6.27336H91.4208V22.0582H95.0026V13.946C95.0026 10.1178 96.9114 9.13767 98.7185 9.13767C102.095 9.13767 102.416 12.515 102.416 14.4591V22.0513H106V13.2466C106 11.3739 105.603 5.82013 99.7607 5.82013Z" fill="black"/>
</svg>
