<svg width="47" height="42" viewBox="0 0 47 42" fill="none" xmlns="http://www.w3.org/2000/svg">
<path fill-rule="evenodd" clip-rule="evenodd" d="M19.7857 0.20166L27.4532 0.51455H27.7929C27.8206 0.51455 27.8298 0.514549 27.8344 0.537556V0.592772L36.8075 4.73395L36.8907 4.78227C36.9524 4.82133 37.0097 4.86684 37.0617 4.91801L37.1911 5.04684L43.7864 12.8415V12.9197C43.7874 12.9364 43.7921 12.9526 43.8 12.9673C43.808 12.982 43.8191 12.9948 43.8326 13.0048L43.8511 13.0278V13.0761V13.1521V13.1889C43.8615 13.2076 43.8748 13.2247 43.8903 13.2395L43.9088 13.2625L43.9204 13.3085V13.3867L46.0002 22.3593L46.0233 22.4743C46.0455 22.6919 46.0029 22.9111 45.9008 23.1047L45.8476 23.2174L40.7869 31.4009L40.7198 31.5021C40.6157 31.6372 40.4822 31.7471 40.3293 31.8236C40.1764 31.9001 40.0082 31.9412 39.8371 31.9438H39.7123L31.9663 30.9315L30.8108 33.8925L30.9634 40.0513V40.1664C30.9462 40.3759 30.8728 40.5769 30.7508 40.7486C30.6288 40.9202 30.4628 41.056 30.2701 41.1418C30.1506 41.1987 30.0189 41.2256 29.8865 41.2201C29.6069 41.2101 29.3399 41.1017 29.1332 40.9141L29.043 40.8313L22.219 33.3472H13.997C13.9531 33.3472 13.9415 33.3311 13.8814 33.269H13.8537C13.8383 33.2648 13.8248 33.2554 13.8155 33.2424C13.8062 33.2294 13.8018 33.2136 13.8029 33.1977C13.7474 33.1977 13.7312 33.1517 13.6966 33.131H13.6503L13.4978 32.9745V32.8963L9.04941 25.6124L1.53448 22.5732L1.43973 22.5295C1.28662 22.4515 1.15374 22.3392 1.05151 22.2015C0.94927 22.0638 0.880457 21.9044 0.85046 21.7358V21.6369L6.10352e-05 12.6735V12.0431C0.000359802 12.0335 0.00256996 12.024 0.00656493 12.0151C0.0105599 12.0063 0.0162617 11.9984 0.0233439 11.9917C0.0304261 11.9851 0.0387498 11.98 0.0478397 11.9765C0.0569297 11.9731 0.0666079 11.9715 0.0763201 11.9718C0.0760106 11.9617 0.0777543 11.9515 0.0814479 11.9421C0.0851415 11.9326 0.090709 11.9239 0.0978213 11.9166C0.104934 11.9093 0.113445 11.9035 0.122851 11.8996C0.132257 11.8956 0.142366 11.8936 0.152578 11.8936C0.153609 11.8769 0.158278 11.8607 0.166259 11.846C0.174241 11.8313 0.185344 11.8185 0.198796 11.8085L0.217282 11.7855L0.231148 11.7326L8.51329 3.16491L8.5572 3.12579L8.6219 3.08438C8.63844 3.07328 8.65194 3.05826 8.66119 3.04067V3.00846H8.73745H8.79522L8.91076 2.95555L8.96853 2.94174L19.4737 0.213163L19.7857 0.20166ZM22.1243 27.5358L17.558 30.9867H22.7436H22.8592C23.0988 31.023 23.3228 31.1277 23.5039 31.2881L23.5963 31.3733L26.924 35.0543L24.4467 28.3824L24.2341 28.3571C23.5441 28.2658 22.8832 28.0222 22.2999 27.6439L22.1243 27.5358ZM41.1658 26.2612L28.2943 25.5549C28.061 26.4781 27.4878 27.2804 26.6883 27.8026L26.5334 27.9085L28.5254 33.4784V33.43C28.5254 33.3806 28.539 33.332 28.5647 33.2897L28.6017 33.2414L30.1684 29.1508C30.2604 28.9586 30.4067 28.7973 30.5893 28.6866C30.7719 28.5758 30.983 28.5205 31.1968 28.5273L39.1808 29.558L41.1728 26.2635L28.3012 25.5572L41.1658 26.2612ZM20.5991 23.3923L15.1894 20.4014C14.517 21.0187 13.6467 21.3789 12.7329 21.4183H12.5203H12.139L10.9212 24.5633L14.5793 30.6946L20.6754 25.9L20.6592 25.5779C20.6199 25.1569 20.5229 24.7681 20.5229 24.3263C20.5229 24.0963 20.5668 23.8547 20.5876 23.62V23.39L15.1778 20.3991L20.5991 23.3923ZM42.1595 15.2549L28.4792 23.3072V23.3854L42.6217 24.1653L43.6962 22.3685L42.1595 15.2549ZM2.34097 14.2633L2.96028 20.6637L9.13954 22.9782L10.1448 20.3554L10.0154 20.2634C9.5716 19.9242 9.20824 19.492 8.95105 18.9974C8.69386 18.5028 8.54914 17.9579 8.52716 17.4014V17.1943V16.9642L2.34097 14.2633ZM24.8234 14.0654L16.5436 17.2863V17.5164C16.5241 17.7543 16.4909 17.9909 16.4442 18.225L16.398 18.4551L21.7222 21.3953L21.8655 21.2573C22.5399 20.6483 23.3879 20.2632 24.2919 20.1553L24.5068 20.1345L25.7454 15.0915L25.6045 14.9949C25.3289 14.7777 25.0942 14.5137 24.9112 14.215L24.8234 14.0654ZM39.6129 14.284L32.0703 12.8829C31.622 14.6245 30.0922 15.998 28.2504 16.0831H28.0702H27.6866L26.5311 20.8478L26.6628 20.8915C26.8892 20.9884 27.0959 21.1256 27.2729 21.2964L27.3769 21.3953L39.6014 14.2863L32.0703 12.8829L39.6129 14.284ZM26.6721 4.16109L16.2085 15.0547L24.0654 12.0201V11.866V11.6842C24.0882 10.833 24.3823 10.0111 24.9054 9.33733C25.4284 8.66359 26.1532 8.17297 26.9748 7.93647L27.1389 7.89736L26.6721 4.16109ZM8.82757 6.14426L2.92562 12.126L9.2158 14.8591L9.32441 14.705C9.60879 14.3203 9.95834 13.9879 10.3574 13.7226L10.5353 13.6145L8.82757 6.14426ZM20.1046 2.18253L10.7294 4.65803L12.5781 12.9404H12.8092C13.3501 12.991 13.8776 13.1375 14.3667 13.3729L14.5747 13.4718L25.1677 2.41489L20.1046 2.18253ZM28.8859 3.37196L29.422 7.88585L29.6023 7.95717C30.1365 8.17318 30.6207 8.49563 31.0253 8.90471C31.4298 9.31379 31.7461 9.80087 31.9547 10.3361L32.0194 10.5293L40.2022 12.0869L35.6798 6.71712L28.8859 3.37196Z" fill="#F44336"/>
</svg>
