<svg width="34" height="25" viewBox="0 0 34 25" fill="none" xmlns="http://www.w3.org/2000/svg">
<g clip-path="url(#clip0_148_138)">
<path d="M17.3743 24.1162C23.7255 24.1162 28.8743 18.7436 28.8743 12.1162C28.8743 5.48879 23.7255 0.116211 17.3743 0.116211C11.023 0.116211 5.87427 5.48879 5.87427 12.1162C5.87427 18.7436 11.023 24.1162 17.3743 24.1162Z" fill="black"/>
<path d="M25.4075 9.93671C25.4075 7.91266 23.8299 6.27393 21.8814 6.27393H12.8672C10.9187 6.27393 9.34106 7.91266 9.34106 9.93671V14.2958C9.34106 16.3199 10.9187 17.9586 12.8672 17.9586H21.8814C23.8299 17.9586 25.4075 16.3199 25.4075 14.2958V9.93671ZM20.1071 12.4436L16.0626 14.5233C15.9062 14.6115 15.3654 14.4955 15.3654 14.3051V10.0388C15.3654 9.8485 15.9062 9.73244 16.0671 9.82529L19.9373 12.0118C20.0982 12.1093 20.268 12.3507 20.1071 12.4436Z" fill="white"/>
</g>
<defs>
<clipPath id="clip0_148_138">
<rect width="33" height="24" fill="white" transform="translate(0.874268 0.116211)"/>
</clipPath>
</defs>
</svg>
