<svg width="25" height="25" viewBox="0 0 25 25" fill="none" xmlns="http://www.w3.org/2000/svg">
<g clip-path="url(#clip0_25_9)">
<path d="M12.0984 24.1162C18.7258 24.1162 24.0984 18.7436 24.0984 12.1162C24.0984 5.48879 18.7258 0.116211 12.0984 0.116211C5.47097 0.116211 0.0983887 5.48879 0.0983887 12.1162C0.0983887 18.7436 5.47097 24.1162 12.0984 24.1162Z" fill="black"/>
<path d="M9.67353 19.028C15.5349 19.028 18.7402 14.1729 18.7402 9.96132C18.7402 9.82265 18.7366 9.68576 18.7313 9.54887C19.3535 9.0991 19.894 8.53732 20.3206 7.89909C19.75 8.15332 19.1349 8.32398 18.4913 8.40043C19.1491 8.00576 19.654 7.38176 19.8922 6.63865C19.2771 7.00309 18.5944 7.26976 17.8691 7.41198C17.2877 6.79332 16.4593 6.40576 15.5437 6.40576C13.7837 6.40576 12.3562 7.83332 12.3562 9.59154C12.3562 9.84221 12.3846 10.084 12.4397 10.3187C9.79086 10.1853 7.44241 8.91776 5.87264 6.98887C5.59886 7.45998 5.44064 8.00754 5.44064 8.59065C5.44064 9.69643 6.00241 10.6724 6.8593 11.2431C6.33664 11.2271 5.84597 11.0831 5.41575 10.8449C5.41575 10.8573 5.41575 10.8715 5.41575 10.8858C5.41575 12.4289 6.51442 13.7178 7.97219 14.0093C7.70375 14.0822 7.42286 14.1213 7.13308 14.1213C6.92864 14.1213 6.72775 14.1018 6.53397 14.0644C6.9393 15.3302 8.11619 16.2511 9.50997 16.2778C8.41841 17.1329 7.04597 17.6413 5.55264 17.6413C5.29486 17.6413 5.04241 17.6271 4.79175 17.5969C6.20153 18.5 7.87619 19.028 9.6753 19.028" fill="white"/>
</g>
<defs>
<clipPath id="clip0_25_9">
<rect width="24" height="24" fill="white" transform="translate(0.0983887 0.116211)"/>
</clipPath>
</defs>
</svg>
