<svg width="24" height="25" viewBox="0 0 24 25" fill="none" xmlns="http://www.w3.org/2000/svg">
<g clip-path="url(#clip0_25_3)">
<path d="M11.9863 24.1162C18.3376 24.1162 23.4863 18.7436 23.4863 12.1162C23.4863 5.48879 18.3376 0.116211 11.9863 0.116211C5.63505 0.116211 0.486328 5.48879 0.486328 12.1162C0.486328 18.7436 5.63505 24.1162 11.9863 24.1162Z" fill="black"/>
<path d="M12.8756 10.479C13.0648 10.2568 13.2198 10.0328 13.414 9.84257C14.0103 9.2559 14.7156 8.96079 15.5402 8.9679C15.9934 8.97145 16.4398 9.00523 16.8759 9.13679C17.8743 9.43723 18.4536 10.1555 18.7313 11.1723C18.9391 11.935 18.9766 12.719 18.9783 13.5048C18.9817 15.1617 18.9732 16.8203 18.9783 18.4772C18.9783 18.6319 18.9374 18.6728 18.7909 18.6728C17.9731 18.6657 17.1536 18.6657 16.3359 18.6728C16.1911 18.6728 16.1604 18.6283 16.1604 18.4861C16.1655 16.9092 16.1655 15.3323 16.1604 13.7537C16.1604 13.359 16.1348 12.9626 16.0292 12.5786C15.8333 11.871 15.3477 11.5101 14.6373 11.5492C13.6662 11.6026 13.1619 12.1039 13.0392 13.1332C13.0102 13.3786 12.9949 13.6257 12.9966 13.8728C12.9966 15.407 12.9966 16.9412 13 18.4755C13 18.6283 12.9642 18.6728 12.8143 18.6728C11.9897 18.6657 11.1651 18.6657 10.3405 18.6728C10.2076 18.6728 10.1702 18.6372 10.1702 18.4968C10.1736 15.4603 10.1736 12.4221 10.1702 9.38568C10.1702 9.23457 10.2179 9.20079 10.3542 9.20079C11.1362 9.20612 11.9199 9.2079 12.7019 9.20079C12.8467 9.20079 12.8825 9.24879 12.8808 9.39101C12.8722 9.75368 12.8774 10.1163 12.8774 10.4808L12.8756 10.479Z" fill="#FEFEFE"/>
<path d="M8.39151 13.949C8.39151 15.4512 8.3898 16.9534 8.39491 18.4556C8.39491 18.6227 8.35573 18.6725 8.19047 18.6707C7.37269 18.6618 6.55492 18.6636 5.73543 18.6707C5.60425 18.6707 5.56506 18.637 5.56506 18.4965C5.56847 15.4547 5.56847 12.413 5.56506 9.3694C5.56506 9.24317 5.59403 9.19873 5.7218 9.19873C6.55151 9.20406 7.38121 9.20584 8.21092 9.19873C8.37106 9.19873 8.39151 9.26095 8.39151 9.40495C8.3881 10.9196 8.3898 12.4343 8.3898 13.949H8.39151Z" fill="#FEFEFE"/>
<path d="M8.61811 6.18557C8.61811 7.12957 7.88552 7.89757 6.98256 7.89757C6.09152 7.89757 5.35211 7.12957 5.34871 6.19979C5.3453 5.26113 6.08471 4.48779 6.98596 4.48779C7.88041 4.48779 8.61641 5.25402 8.61811 6.18379V6.18557Z" fill="#FEFEFE"/>
</g>
<defs>
<clipPath id="clip0_25_3">
<rect width="23" height="24" fill="white" transform="translate(0.486328 0.116211)"/>
</clipPath>
</defs>
</svg>
